<svg width="1290" height="801" viewBox="0 0 1290 801" fill="none" xmlns="http://www.w3.org/2000/svg">
<path d="M4.12012 146.93H764.9" stroke="#222221" stroke-width="0.28" stroke-miterlimit="10"/>
<path d="M4.12012 800.69V1" stroke="#222221" stroke-width="0.28" stroke-miterlimit="10"/>
<path d="M764.9 271.45H1C1 271.45 266.8 290.91 276.52 1V800.69" stroke="#222221" stroke-width="0.28" stroke-miterlimit="10"/>
<path d="M4.12012 512.72H764.9" stroke="#222221" stroke-width="0.28" stroke-miterlimit="10"/>
<path d="M4.12012 664.49H764.9" stroke="#222221" stroke-width="0.28" stroke-miterlimit="10"/>
<path d="M4.12012 111.9H764.9" stroke="#222221" stroke-width="0.28" stroke-miterlimit="10"/>
<path d="M706.53 800.69V512.72" stroke="#222221" stroke-width="0.28" stroke-miterlimit="10"/>
<path d="M706.53 290.91V2.94" stroke="#222221" stroke-width="0.28" stroke-miterlimit="10"/>
<path d="M404.94 800.69C404.94 800.69 371.87 516.62 706.53 512.69" stroke="#222221" stroke-width="0.28" stroke-miterlimit="10"/>
<path d="M652.62 664.53C652.62 664.53 706.53 668.37 706.53 627.83C706.53 627.83 705.42 664.53 754.37 664.53H652.62Z" fill="#222221" stroke="#222221" stroke-width="0.28" stroke-miterlimit="10"/>
<path d="M652.62 111.81C652.62 111.81 706.53 115.65 706.53 75.11C706.53 75.11 705.42 111.81 754.37 111.81H652.62Z" fill="#222221" stroke="#222221" stroke-width="0.28" stroke-miterlimit="10"/>
<path d="M4.04018 75.11C4.04018 75.11 2.93017 111.81 51.8802 111.81H4.12016" fill="#222221"/>
<path d="M4.04018 75.11C4.04018 75.11 2.93017 111.81 51.8802 111.81H4.12016" stroke="#222221" stroke-width="0.28" stroke-miterlimit="10"/>
<path d="M642.87 271.45C642.87 271.45 699.07 280.45 706.77 322.98C706.77 322.98 717.49 269.8 765.77 271.45H642.87Z" fill="#222221" stroke="#222221" stroke-width="0.28" stroke-miterlimit="10"/>
<path d="M277.22 372C277.22 372 272.83 272.72 354.01 270.53C354.01 270.53 274.94 271.08 277.18 136.69H277.09C279.32 271.07 200.25 270.53 200.25 270.53C281.43 272.73 277.04 372.01 277.04 372.01" fill="#222221"/>
<path d="M277.22 372C277.22 372 272.83 272.72 354.01 270.53C354.01 270.53 274.94 271.08 277.18 136.69H277.09C279.32 271.07 200.25 270.53 200.25 270.53C281.43 272.73 277.04 372.01 277.04 372.01" stroke="#222221" stroke-width="0.28" stroke-miterlimit="10"/>
<path d="M663.81 146.93H1289.38" stroke="#222221" stroke-width="0.28" stroke-miterlimit="10"/>
<path d="M1289.38 271.45H663.81C663.81 271.45 969.29 290.91 979.01 1V800.69" stroke="#222221" stroke-width="0.28" stroke-miterlimit="10"/>
<path d="M663.81 512.72H1289.38" stroke="#222221" stroke-width="0.28" stroke-miterlimit="10"/>
<path d="M663.81 664.49H1289.38" stroke="#222221" stroke-width="0.28" stroke-miterlimit="10"/>
<path d="M663.81 111.9H1289.38" stroke="#222221" stroke-width="0.28" stroke-miterlimit="10"/>
<path d="M1107.43 800.69C1107.43 800.69 1082.94 590.32 1289.43 529.17" stroke="#222221" stroke-width="0.28" stroke-miterlimit="10"/>
<path d="M652.62 111.81C652.62 111.81 706.53 115.65 706.53 75.11C706.53 75.11 705.42 111.81 754.37 111.81H652.62Z" fill="#222221" stroke="#222221" stroke-width="0.28" stroke-miterlimit="10"/>
<path d="M979.71 372C979.71 372 975.32 272.72 1056.5 270.52C1056.5 270.52 977.43 271.07 979.67 136.68H979.57C981.81 271.07 902.74 270.52 902.74 270.52C983.92 272.72 979.53 372 979.53 372" fill="#222221"/>
<path d="M979.71 372C979.71 372 975.32 272.72 1056.5 270.52C1056.5 270.52 977.43 271.07 979.67 136.68H979.57C981.81 271.07 902.74 270.52 902.74 270.52C983.92 272.72 979.53 372 979.53 372" stroke="#222221" stroke-width="0.28" stroke-miterlimit="10"/>
</svg>
