<svg width="2591" height="1840" viewBox="0 0 2591 1840" fill="none" xmlns="http://www.w3.org/2000/svg">
<path d="M0 0L1 1839.5H2590.5L2587 0H0ZM1628.89 858.411C1628.89 858.411 1378.68 843.865 1335.49 899.631C1294.92 951.977 1296.42 976.986 1296.42 1134.62H1290.5C1290.5 976.986 1291.99 951.977 1251.42 899.631C1208.23 843.865 958.033 858.411 958.033 858.411V852.651C1183.11 852.111 1185.77 848.916 1235.34 824.121C1284.54 799.517 1287.03 704.365 1287.03 704.365H1299.88C1299.88 704.365 1302.36 799.484 1351.56 824.087C1401.14 848.837 1403.79 852.077 1628.86 852.617L1628.89 858.411Z" fill="#222221"/>
</svg>
