<svg width="1439" height="899" viewBox="0 0 1439 899" fill="none" xmlns="http://www.w3.org/2000/svg">
<path d="M0.125 -8.86501V898.166H1443.05V-8.86501H0.125ZM1057.01 383.546C1057.01 383.546 806.806 369 763.617 424.766C723.05 477.112 724.546 502.121 724.546 659.756H718.629C718.629 502.121 720.114 477.112 679.546 424.766C636.357 369 386.158 383.546 386.158 383.546V377.786C611.236 377.246 613.891 374.051 663.47 349.256C712.666 324.652 715.153 229.5 715.153 229.5H728C728 229.5 730.486 324.619 779.682 349.222C829.261 373.972 831.916 377.212 1056.99 377.752L1057.01 383.546Z" fill="#222221"/>
</svg>
