<svg width="1441" height="1026" viewBox="0 0 1441 1026" fill="none" xmlns="http://www.w3.org/2000/svg">
<path d="M1440.5 0.499023C1440.5 0.499023 1201.5 0.499023 1123.5 0.499023H816.5H710H440C246.5 0.49906 38.5 0.499978 0.5 0.499655C0.499994 58.5022 0.50013 344.493 0.500126 406.987V496.557C0.500126 496.557 0.500121 486.999 0.500114 537.987C0.500126 553.999 0.500086 551.499 0.500126 558.987V1025.49H1440.5V537.987C1440.5 502 1440.5 547.999 1440.5 515.499C1440.5 472.487 1440.5 472.487 1440.5 472.487V454.777C1440.5 311.981 1440.5 0.499023 1440.5 0.499023Z" fill="#222221" stroke="#222221" stroke-width="0.28" stroke-miterlimit="10"/>
</svg>
