<svg width="29" height="29" viewBox="0 0 29 29" fill="none" xmlns="http://www.w3.org/2000/svg">
<path fill-rule="evenodd" clip-rule="evenodd" d="M5.51333 11.4022H5.41667C4.77573 11.4022 4.16104 11.6568 3.70783 12.11C3.25461 12.5632 3 13.1779 3 13.8189V16.2355C3 16.8765 3.25461 17.4912 3.70783 17.9444C4.16104 18.3976 4.77573 18.6522 5.41667 18.6522H5.51333C5.86201 18.6521 6.20658 18.7274 6.52341 18.8729C6.84023 19.0185 7.12181 19.231 7.34879 19.4956L11.7495 24.631C12.4794 25.4817 13.875 24.9657 13.875 23.8444V6.21C13.875 5.08867 12.4794 4.57271 11.7483 5.42458L7.35 10.5576C7.12299 10.8226 6.84128 11.0354 6.52423 11.1812C6.20717 11.327 5.8623 11.4024 5.51333 11.4022ZM21.8935 5.69283C21.7791 5.58013 21.6435 5.49135 21.4944 5.43168C21.3453 5.37201 21.1859 5.34264 21.0253 5.3453C20.8648 5.34796 20.7064 5.38259 20.5594 5.44716C20.4124 5.51174 20.2797 5.60496 20.1692 5.72139C20.0586 5.83782 19.9723 5.97511 19.9154 6.12526C19.8585 6.2754 19.8321 6.43538 19.8378 6.59584C19.8434 6.75631 19.8809 6.91404 19.9482 7.05982C20.0155 7.20561 20.1112 7.33652 20.2296 7.44491C24.6461 11.6402 24.6461 18.4142 20.2296 22.6095C20.1112 22.7179 20.0155 22.8488 19.9482 22.9946C19.8809 23.1404 19.8434 23.2981 19.8378 23.4586C19.8321 23.619 19.8585 23.779 19.9154 23.9292C19.9723 24.0793 20.0586 24.2166 20.1692 24.333C20.2797 24.4495 20.4124 24.5427 20.5594 24.6073C20.7064 24.6718 20.8648 24.7065 21.0253 24.7091C21.1859 24.7118 21.3453 24.6824 21.4944 24.6227C21.6435 24.5631 21.7791 24.4743 21.8935 24.3616C27.3129 19.2141 27.3129 10.8403 21.8935 5.69283ZM18.3325 9.07616C18.1002 8.85536 17.7897 8.7359 17.4692 8.74406C17.1488 8.75221 16.8448 8.88732 16.624 9.11966C16.4032 9.35201 16.2837 9.66254 16.2918 9.98297C16.3 10.3034 16.4351 10.6074 16.6675 10.8282C19.1168 13.1543 19.1168 16.9001 16.6675 19.2262C16.5524 19.3355 16.46 19.4664 16.3956 19.6114C16.3311 19.7565 16.2959 19.9128 16.2918 20.0714C16.2878 20.2301 16.3151 20.388 16.372 20.5361C16.429 20.6843 16.5146 20.8197 16.624 20.9347C16.8448 21.1671 17.1488 21.3022 17.4692 21.3104C17.6279 21.3144 17.7858 21.2871 17.9339 21.2302C18.082 21.1732 18.2175 21.0876 18.3325 20.9782C21.7847 17.6988 21.7847 12.3556 18.3325 9.07616Z" fill="black"/>
</svg>
